<svg width="736" height="438" viewBox="0 0 736 438" fill="none" xmlns="http://www.w3.org/2000/svg">
<path d="M736 409.694V92.2552C736 41.3041 694.61 0 643.554 0C618.927 0 595.317 9.80619 577.962 27.2435L288.927 317.654C277.888 328.746 277.974 346.674 289.118 357.66L311.734 379.951C367.057 434.483 456.104 434.264 511.157 379.459L620.543 270.567C625.735 265.398 634.095 265.256 639.461 270.245C645.047 275.438 645.27 284.197 639.955 289.666L603.057 327.642C597.627 333.231 597.752 342.151 603.336 347.586L687.928 429.918C705.86 447.371 736 434.692 736 409.694Z" fill="white"/>
<path d="M0 29.361V345.407C0 396.469 41.4797 437.863 92.6475 437.863C117.16 437.863 140.673 428.169 158.038 410.904L446.862 123.74C458 112.666 457.961 94.6559 446.775 83.6299L424.266 61.4431C368.943 6.91088 279.896 7.13044 224.843 61.935L115.457 170.827C110.265 175.996 101.905 176.139 96.5391 171.15C90.9533 165.956 90.7304 157.198 96.0448 151.728L133.065 113.626C138.447 108.087 138.379 99.2626 132.913 93.8066L48.3251 9.38669C30.4926 -8.4105 0 4.19308 0 29.361Z" fill="white"/>
</svg>
